<svg width="20" height="21" viewBox="0 0 20 21" fill="none" xmlns="http://www.w3.org/2000/svg">
<path d="M9.99999 0.130615C4.49999 0.130615 0 4.75567 0 10.452C0 15.6024 3.65999 19.8772 8.43999 20.6498V13.4392H5.89999V10.452H8.43999V8.17552C8.43999 5.59003 9.92999 4.16852 12.22 4.16852C13.31 4.16852 14.45 4.36424 14.45 4.36424V6.90853H13.19C11.95 6.90853 11.56 7.70169 11.56 8.51545V10.452H14.34L13.89 13.4392H11.56V20.6498C13.9164 20.2664 16.0622 19.0279 17.6099 17.1579C19.1576 15.2878 20.0053 12.9094 20 10.452C20 4.75567 15.5 0.130615 9.99999 0.130615Z" fill="#77D1D1"/>
</svg>
