<svg width="20" height="21" viewBox="0 0 20 21" fill="none" xmlns="http://www.w3.org/2000/svg">
<path d="M5.8 0.130615H14.2C17.4 0.130615 20 2.79811 20 6.08117V14.6992C20 16.2774 19.3889 17.7909 18.3012 18.9069C17.2135 20.0228 15.7383 20.6498 14.2 20.6498H5.8C2.6 20.6498 0 17.9823 0 14.6992V6.08117C0 4.50298 0.61107 2.98944 1.69878 1.87349C2.78649 0.757547 4.26174 0.130615 5.8 0.130615ZM5.6 2.18253C4.64522 2.18253 3.72955 2.57166 3.05442 3.26432C2.37928 3.95697 2 4.89641 2 5.87598V14.9044C2 16.9461 3.61 18.5979 5.6 18.5979H14.4C15.3548 18.5979 16.2705 18.2087 16.9456 17.5161C17.6207 16.8234 18 15.884 18 14.9044V5.87598C18 3.83432 16.39 2.18253 14.4 2.18253H5.6ZM15.25 3.72147C15.5815 3.72147 15.8995 3.85658 16.1339 4.09709C16.3683 4.33759 16.5 4.66379 16.5 5.00391C16.5 5.34404 16.3683 5.67024 16.1339 5.91074C15.8995 6.15125 15.5815 6.28636 15.25 6.28636C14.9185 6.28636 14.6005 6.15125 14.3661 5.91074C14.1317 5.67024 14 5.34404 14 5.00391C14 4.66379 14.1317 4.33759 14.3661 4.09709C14.6005 3.85658 14.9185 3.72147 15.25 3.72147ZM10 5.2604C11.3261 5.2604 12.5979 5.80086 13.5355 6.76288C14.4732 7.72491 15 9.02969 15 10.3902C15 11.7507 14.4732 13.0555 13.5355 14.0175C12.5979 14.9795 11.3261 15.52 10 15.52C8.67392 15.52 7.40215 14.9795 6.46447 14.0175C5.52678 13.0555 5 11.7507 5 10.3902C5 9.02969 5.52678 7.72491 6.46447 6.76288C7.40215 5.80086 8.67392 5.2604 10 5.2604ZM10 7.31232C9.20435 7.31232 8.44129 7.63659 7.87868 8.21381C7.31607 8.79102 7 9.57389 7 10.3902C7 11.2065 7.31607 11.9894 7.87868 12.5666C8.44129 13.1438 9.20435 13.4681 10 13.4681C10.7956 13.4681 11.5587 13.1438 12.1213 12.5666C12.6839 11.9894 13 11.2065 13 10.3902C13 9.57389 12.6839 8.79102 12.1213 8.21381C11.5587 7.63659 10.7956 7.31232 10 7.31232Z" fill="#77D1D1"/>
</svg>
